<svg version="1.1" id="Layer_1" xmlns="http://www.w3.org/2000/svg" xmlns:xlink="http://www.w3.org/1999/xlink" x="0px" y="0px"
	 width="100%" viewBox="0 0 1024 576" enable-background="new 0 0 1024 576" xml:space="preserve">
<path fill="#FFFFFFFF" opacity="1.000000" stroke="none" 
	d="
M99.389404,350.624115 
	C99.786377,343.525696 96.661827,338.857361 90.901535,335.706604 
	C78.589752,328.972412 75.447594,315.828583 69.414536,304.732910 
	C68.243332,302.578918 69.357346,300.042969 70.003044,297.909698 
	C72.183441,290.706085 73.869461,283.240082 74.133904,275.908691 
	C74.724403,259.537872 83.721359,246.616928 90.260536,232.722168 
	C95.218842,222.186523 105.084724,215.888153 113.530205,208.351746 
	C122.130470,200.677200 132.063919,196.951248 143.169357,195.289124 
	C147.873627,194.585037 152.487061,194.411102 157.003769,195.842834 
	C162.423981,197.560959 167.885590,198.816467 173.586487,199.130188 
	C179.598862,199.461060 185.451019,200.482162 190.830673,203.530243 
	C193.354218,204.960037 196.329498,204.994217 199.144012,204.692871 
	C210.752594,203.449890 222.361206,205.582687 234.002304,204.455093 
	C239.306244,203.941345 242.676102,208.223892 245.562973,212.131653 
	C247.888885,215.280060 249.618652,218.482101 254.650848,217.269608 
	C256.919067,216.723083 258.594635,218.777878 259.372650,221.446442 
	C261.022919,227.107010 261.619720,232.767181 261.389618,238.660095 
	C260.720367,255.798218 260.194885,273.030975 256.226776,289.718811 
	C252.959076,303.461243 242.900589,312.325226 230.420410,318.284515 
	C217.816803,324.302856 205.020737,329.920227 192.453384,336.011200 
	C188.421265,337.965515 188.379044,340.506500 192.102249,343.202362 
	C197.381439,347.024933 203.296051,349.722626 209.439224,351.927338 
	C211.715515,352.744293 214.611359,353.338135 213.241409,357.006134 
	C213.130859,357.302155 213.046005,357.888123 213.156387,357.946320 
	C220.016327,361.562073 214.745102,366.029755 213.797958,369.942535 
	C212.174347,376.649963 212.497940,382.943939 214.867264,389.491058 
	C217.646591,397.171265 214.568726,404.936890 213.911484,412.651123 
	C213.573578,416.617340 212.594559,420.526398 212.195862,424.490509 
	C211.382736,432.575287 207.885727,439.057983 201.338654,443.912292 
	C199.334396,445.398376 197.335938,446.930115 195.542664,448.656799 
	C184.317551,459.465332 170.923904,459.894287 156.801727,456.845184 
	C154.847382,456.423187 152.770508,455.818878 151.671463,454.007751 
	C146.757721,445.910339 138.210297,441.806793 131.541351,435.646576 
	C128.507980,432.844543 125.727539,430.047974 124.752335,426.051697 
	C122.654312,417.454193 117.143578,411.829926 109.550797,407.967987 
	C107.207535,406.776123 106.242386,405.530670 107.577682,402.908875 
	C112.385803,393.468353 112.124374,383.345947 111.469559,373.152039 
	C111.099373,367.389130 110.019089,362.278168 103.363449,361.359161 
	C103.241005,358.791687 105.510338,358.252899 105.751434,356.543182 
	C105.085999,352.997375 98.273361,356.580383 99.389404,350.624115 
z"/>
<path fill="#FFFFFFFF" opacity="1.000000" stroke="none" 
	d="
M623.631836,264.176331 
	C642.085999,272.558868 648.630676,287.975372 648.892700,306.425751 
	C649.158508,325.146698 641.988831,342.334900 622.149902,351.860168 
	C611.112976,357.159332 599.447144,357.886993 587.583984,354.726654 
	C586.139954,354.341949 584.709045,353.906158 583.257874,353.552124 
	C582.977661,353.483765 582.631470,353.686249 582.232361,353.784271 
	C580.736511,355.248962 581.345032,357.187775 581.337402,358.930481 
	C581.279724,372.083466 581.165161,385.238892 581.372925,398.388733 
	C581.439392,402.595245 579.793335,403.817108 575.841858,403.933105 
	C561.936157,404.341278 561.926208,404.444000 561.916748,390.460266 
	C561.888855,349.169189 561.867981,307.878082 561.854370,266.587006 
	C561.851807,258.815125 561.875061,258.691986 569.523132,258.820984 
	C581.827209,259.028473 594.155457,258.020386 606.435181,259.632324 
	C612.247986,260.395325 617.866882,261.792664 623.631836,264.176331 
M581.328308,279.956207 
	C581.324829,296.782013 581.325134,313.607788 581.313293,330.433594 
	C581.311646,332.791260 581.128174,335.117340 583.991516,336.234528 
	C600.565430,342.701263 621.235779,338.832458 627.688416,317.672363 
	C629.329224,312.291687 629.118591,306.805817 628.727295,301.320251 
	C627.838440,288.859772 619.861450,279.902130 607.658386,277.319855 
	C600.061035,275.712158 592.392090,276.487244 584.749329,276.334290 
	C582.865601,276.296600 581.462402,276.889557 581.328308,279.956207 
z"/>
<path fill="#FFFFFFFF" opacity="1.000000" stroke="none" 
	d="
M201.311264,169.148743 
	C192.085892,166.410858 182.944138,165.693817 173.965317,164.081329 
	C165.325653,162.529709 158.174820,156.937286 152.504776,150.331131 
	C148.712296,145.912506 150.239487,137.451630 154.859573,132.914261 
	C160.702286,127.176132 167.151459,122.169952 174.683640,118.758652 
	C178.380112,117.084541 181.801544,115.097229 184.038544,111.559639 
	C185.220627,109.690269 186.937943,109.056068 189.088440,108.899391 
	C196.217133,108.379997 203.327560,107.553337 210.462585,107.205482 
	C213.229095,107.070610 216.114227,107.628906 218.820297,108.344292 
	C225.086212,110.000778 231.265762,111.980995 237.499039,113.764534 
	C244.761459,115.842537 249.748352,120.397598 252.183197,127.514236 
	C254.180756,133.352798 256.669922,138.972839 259.014771,144.666122 
	C262.999359,154.340744 261.856140,164.303238 259.433228,174.085373 
	C258.277771,178.750229 254.425446,179.543564 250.231873,178.265503 
	C236.650757,174.126389 222.691986,171.908691 208.682556,169.933548 
	C206.381927,169.609177 204.060608,169.431442 201.311264,169.148743 
z"/>
<path fill="#FFFFFFFF" opacity="1.000000" stroke="none" 
	d="
M510.445374,260.267334 
	C528.884888,267.376343 540.030640,280.328918 542.073303,299.604309 
	C544.242188,320.071411 538.220886,337.777008 519.686523,348.972229 
	C495.354279,363.669525 454.810760,358.612579 443.219635,323.457794 
	C437.384430,305.760193 439.312897,288.671295 452.049347,274.264893 
	C465.449707,259.107635 482.679108,254.451050 502.335510,258.149506 
	C504.947021,258.640900 507.497040,259.459045 510.445374,260.267334 
M477.721863,277.139099 
	C455.581543,286.382202 455.675385,319.097626 470.291992,331.758209 
	C480.246460,340.380615 496.320526,341.700500 508.681000,334.572266 
	C519.425049,328.376221 525.234436,313.351105 522.232910,299.522369 
	C517.896484,279.543213 499.042480,269.779297 477.721863,277.139099 
z"/>
<path fill="#FFFFFFFF" opacity="1.000000" stroke="none" 
	d="
M761.928345,300.999878 
	C761.925293,288.833466 762.052734,277.164764 761.856079,265.501556 
	C761.776062,260.757477 763.108948,258.628754 768.353516,258.697021 
	C781.322876,258.865845 781.330261,258.638824 781.337280,271.664429 
	C781.345703,287.164185 781.332581,302.664001 781.353088,318.163727 
	C781.368713,329.976166 785.460754,337.133881 793.461487,339.438751 
	C803.733398,342.397888 816.162354,337.875641 821.703369,329.259064 
	C823.167297,326.982574 823.084717,324.524841 823.086243,322.028931 
	C823.097717,303.195923 823.077515,284.362823 823.136719,265.529968 
	C823.157227,258.999115 823.440613,258.665131 829.910217,258.824554 
	C843.281494,259.153992 842.844299,255.614197 842.865479,272.004730 
	C842.898621,297.661682 842.817322,323.318787 842.878601,348.975616 
	C842.888245,353.009857 841.740967,355.325378 837.188110,354.991455 
	C833.374756,354.711761 829.394897,355.433594 825.736572,354.610504 
	C820.506104,353.433716 825.393738,347.816742 822.107361,345.128632 
	C819.505005,345.810211 817.676270,348.104797 815.413879,349.648224 
	C800.854675,359.580566 782.693848,358.639282 771.954163,347.125488 
	C764.194092,338.806091 762.323059,328.352753 761.963013,317.498596 
	C761.786316,312.171143 761.929871,306.833099 761.928345,300.999878 
z"/>
<path fill="#FFFFFFFF" opacity="1.000000" stroke="none" 
	d="
M376.153046,320.206482 
	C381.734894,337.412933 370.643158,353.981567 352.327087,356.205811 
	C339.750824,357.733002 327.840210,355.302917 316.475922,349.805206 
	C313.954071,348.585205 312.625732,346.975128 312.715820,344.031616 
	C312.872131,338.924561 312.759216,333.809235 312.759216,328.925446 
	C315.587189,327.901154 316.858582,329.604156 318.355988,330.456787 
	C325.328186,334.426544 332.453583,337.935120 340.478577,339.305237 
	C344.771423,340.038147 348.835754,339.371796 352.567902,337.388702 
	C358.764648,334.095947 359.540405,327.919098 354.584442,323.024933 
	C351.101868,319.585754 346.788605,317.371948 342.618805,314.944519 
	C335.716766,310.926453 328.692993,307.101318 322.756653,301.625671 
	C315.330292,294.775574 311.893005,286.540741 314.286530,276.494232 
	C316.710663,266.319183 323.853821,260.978455 333.568115,258.365479 
	C346.725647,254.826340 358.916473,257.755737 370.720947,263.604248 
	C372.134460,264.304596 373.244598,265.274078 373.250885,267.001648 
	C373.269531,272.126831 373.257538,277.252075 373.257538,282.301697 
	C370.286469,283.006042 368.675354,281.241669 366.829285,280.294647 
	C359.943115,276.761993 352.850616,274.081573 344.944214,274.226807 
	C342.745148,274.267151 340.632385,274.600006 338.622101,275.473694 
	C332.942505,277.942078 331.842529,282.910431 336.110291,287.380951 
	C339.937042,291.389435 344.629272,294.290680 349.345398,297.121216 
	C356.919891,301.667267 364.425049,306.302094 370.678528,312.661041 
	C372.790527,314.808655 374.725037,317.082947 376.153046,320.206482 
z"/>
<path fill="#FFFFFFFF" opacity="1.000000" stroke="none" 
	d="
M708.371704,257.012878 
	C718.167358,256.292847 727.002197,258.399384 735.657349,261.698883 
	C738.870178,262.923676 740.533813,264.829803 740.274536,268.422211 
	C739.941711,273.033142 740.730713,277.706665 739.765442,282.241547 
	C737.261597,283.210846 735.770691,281.472198 734.114746,280.570618 
	C727.406006,276.918091 720.423889,274.711609 712.636230,275.057770 
	C698.220215,275.698578 687.390564,285.199646 685.415466,299.509338 
	C684.639099,305.134033 684.497803,310.833466 685.871826,316.406769 
	C689.870117,332.626129 703.821533,339.051666 719.544922,338.337830 
	C727.090576,337.995209 734.042480,335.085693 741.675964,332.658539 
	C742.709229,338.639984 742.340454,344.058502 742.064941,349.461182 
	C741.986023,351.008636 740.681824,351.738098 739.406433,352.135925 
	C719.327637,358.398621 699.623291,359.760284 681.912476,345.834137 
	C668.968201,335.655914 664.262451,321.407684 665.016724,305.487488 
	C665.686401,291.354126 669.654236,278.274261 680.669617,268.268127 
	C688.434265,261.214905 697.785278,258.244720 708.371704,257.012878 
z"/>
<path fill="#FFFFFFFF" opacity="1.000000" stroke="none" 
	d="
M885.616943,244.644531 
	C887.376953,243.217346 888.297729,241.190155 890.852661,240.996490 
	C891.970276,245.268707 891.370544,249.575668 891.321289,253.803589 
	C891.278931,257.435272 892.514648,258.921539 896.243103,258.822113 
	C903.070496,258.640106 909.909546,258.904938 916.737732,258.738220 
	C920.310425,258.651001 921.945190,259.940247 921.955200,263.604675 
	C921.998474,279.362213 922.727600,275.939362 910.177368,276.281372 
	C905.514771,276.408508 900.842163,276.420837 896.181030,276.271423 
	C892.853821,276.164734 891.345886,277.282349 891.376099,280.850372 
	C891.498901,295.347351 891.227234,309.849548 891.485901,324.342926 
	C891.698792,336.272827 899.534729,341.339050 912.344971,338.341278 
	C916.907715,337.273468 920.993347,334.960602 925.977234,332.996643 
	C926.978455,338.661407 927.103210,343.979584 926.254395,349.321106 
	C926.060547,350.541260 924.821655,351.102234 923.745605,351.583313 
	C913.929810,355.971680 903.813965,358.119690 893.138733,355.347961 
	C881.445801,352.311951 873.709106,343.096863 872.635864,331.080841 
	C871.194824,314.947937 872.076172,298.776550 872.042358,282.626556 
	C872.031555,277.468140 870.397522,275.787354 865.421387,276.221832 
	C862.405151,276.485168 859.186951,276.904480 855.085144,275.007965 
	C864.765930,263.881470 875.612000,254.908966 885.616943,244.644531 
z"/>
<path fill="#FFFFFFFF" opacity="1.000000" stroke="none" 
	d="
M419.283447,293.000061 
	C419.280823,311.814117 419.160980,330.129425 419.356506,348.441345 
	C419.405640,353.046326 418.156891,355.085510 413.222473,355.001129 
	C396.963684,354.723053 399.855957,356.216614 399.807404,341.876495 
	C399.665344,299.921082 399.802795,257.964691 399.635101,216.009476 
	C399.615967,211.227112 400.530548,209.329590 405.908722,209.382034 
	C419.303528,209.512695 419.305817,209.193573 419.301849,222.573608 
	C419.294983,245.882416 419.289215,269.191223 419.283447,293.000061 
z"/>
<path fill="#FFFFFFFF" opacity="1.000000" stroke="none" 
	d="
M113.176270,174.365540 
	C102.001907,172.146790 95.574425,165.779572 93.951286,154.727219 
	C92.148529,142.451843 100.880890,131.164780 113.077919,130.097366 
	C121.704926,129.342361 132.308090,139.521851 133.221405,149.435944 
	C134.521500,163.548721 128.213623,171.550354 113.176270,174.365540 
z"/>
<path fill="#FFFFFFFF" opacity="1.000000" stroke="none" 
	d="
M75.692581,164.809174 
	C84.351791,165.977829 92.752182,174.687271 93.922722,185.630371 
	C94.736923,193.242096 89.918449,201.328964 82.165024,204.750305 
	C75.736412,207.587051 64.384247,204.208267 59.735264,197.027756 
	C52.969902,186.578430 52.199387,174.224457 65.129585,166.422928 
	C68.457993,164.414703 71.807816,164.857971 75.692581,164.809174 
z"/>
<path fill="#FFFFFFFF" opacity="1.000000" stroke="none" 
	d="
M68.854843,241.900757 
	C63.803028,246.991852 57.877010,247.872940 52.143471,245.158203 
	C44.475895,241.527725 40.717281,234.852402 40.787491,226.217743 
	C40.844048,219.261688 45.311932,215.306381 50.770363,212.497818 
	C58.826733,208.352478 70.718636,215.536896 73.140221,225.705002 
	C74.569504,231.706497 74.161125,237.266876 68.854843,241.900757 
z"/>
</svg>